<svg width="48" height="48" viewBox="0 0 48 48" fill="none" xmlns="http://www.w3.org/2000/svg">
<circle cx="24" cy="24" r="24" fill="#003DB1"/>
<path d="M15.9512 34H25.5488C28.0449 34 29.9082 33.5078 31.1738 32.5234C32.4395 31.5391 33.0723 30.1855 33.0723 28.4277V28.3926C33.0723 26.0371 31.5254 24.5957 28.4668 24.1035C29.7852 23.8223 30.7695 23.3301 31.4023 22.627C32.0352 21.9238 32.3516 20.9746 32.3516 19.7793V19.7441C32.3516 18.25 31.7188 17.1074 30.4707 16.334C29.2051 15.5605 27.4121 15.1738 25.0918 15.1738H15.9512V34ZM22.3496 30.2559V26.2305H24.2656C25.7773 26.2305 26.5332 26.8984 26.5332 28.2344C26.5332 28.9551 26.3047 29.4648 25.8652 29.7812C25.4258 30.0977 24.7754 30.2559 23.8965 30.2559H22.3496ZM22.3496 22.4863V18.9531H23.1758C24.0898 18.9531 24.7578 19.0762 25.1797 19.3223C25.6016 19.5684 25.8125 20.0078 25.8125 20.6406C25.8125 21.8711 25.0391 22.4863 23.5098 22.4863H22.3496Z" fill="white"/>
</svg>
